<?xml version="1.0" standalone="no"?>
<!DOCTYPE svg PUBLIC "-//W3C//DTD SVG 20010904//EN"
 "http://www.w3.org/TR/2001/REC-SVG-20010904/DTD/svg10.dtd">
<svg version="1.0" xmlns="http://www.w3.org/2000/svg"
 width="1181.000000pt" height="1181.000000pt" viewBox="0 0 1181.000000 1181.000000"
 preserveAspectRatio="xMidYMid meet">
<metadata>
Created by potrace 1.14, written by Peter Selinger 2001-2017
</metadata>
<g transform="translate(0.000000,1181.000000) scale(0.100000,-0.100000)"
fill="#000000" stroke="none">
<path d="M4267 9615 c-15 -16 -180 -298 -311 -530 -48 -85 -244 -422 -264
-455 -12 -19 -22 -41 -22 -48 0 -7 72 -137 160 -289 88 -151 160 -278 160
-281 0 -3 6 -13 14 -21 7 -9 26 -41 42 -71 16 -30 37 -67 47 -82 11 -15 16
-31 12 -39 -5 -7 -4 -10 2 -6 5 3 40 -47 76 -111 37 -65 73 -126 80 -136 13
-18 43 -19 616 -18 332 0 607 4 611 9 7 7 95 160 321 553 42 74 83 142 91 151
7 9 14 20 15 25 1 5 40 75 87 156 47 81 86 152 86 157 0 6 -9 25 -19 43 -11
17 -17 36 -14 42 3 6 3 8 -2 4 -4 -4 -38 45 -75 110 -37 64 -102 178 -145 252
-43 74 -92 160 -108 190 -16 30 -33 60 -37 65 -7 9 -119 200 -172 295 -11 19
-24 39 -28 44 -5 5 -270 9 -607 10 -586 1 -598 1 -616 -19z m1252 -295 c59
-102 170 -293 245 -425 76 -132 149 -256 161 -276 l23 -36 -75 -129 c-41 -71
-85 -147 -97 -169 -25 -43 -177 -307 -289 -500 -38 -66 -73 -122 -77 -125 -6
-4 -1014 -5 -1056 -1 -6 1 -24 24 -40 53 -53 95 -69 122 -125 218 -31 52 -67
115 -81 140 -14 25 -41 72 -60 105 -169 292 -222 381 -229 391 -5 6 46 104
132 255 78 134 193 334 256 444 63 110 121 209 128 220 12 20 23 20 545 20
l532 0 107 -185z"/>
<path d="M6301 8447 c-12 -16 -47 -75 -308 -529 -103 -179 -192 -324 -197
-321 -5 4 -6 1 -2 -5 3 -6 -16 -48 -44 -94 -27 -46 -50 -86 -50 -89 0 -4 47
-89 105 -189 58 -99 105 -183 105 -186 0 -2 15 -28 34 -57 18 -28 80 -133 136
-232 57 -99 131 -227 165 -285 l62 -105 607 0 606 0 67 115 c318 548 535 927
536 935 0 6 -50 98 -112 204 -62 107 -113 199 -114 205 -1 6 -7 15 -13 21 -6
5 -25 35 -42 65 -16 30 -75 133 -130 229 -56 96 -98 179 -95 185 3 6 2 8 -2 3
-5 -4 -28 27 -52 68 l-44 75 -603 0 c-493 0 -606 -2 -615 -13z m1176 -169 c59
-107 486 -843 494 -852 13 -14 11 -28 -3 -20 -7 4 -8 3 -4 -4 6 -10 -57 -124
-243 -442 -14 -25 -28 -50 -31 -55 -23 -49 -216 -373 -227 -382 -8 -6 -14 -14
-14 -17 1 -3 1 -10 1 -15 0 -5 -45 -9 -100 -9 -70 1 -97 4 -93 12 5 7 2 7 -8
-1 -20 -16 -558 -15 -578 1 -11 8 -13 8 -8 0 5 -8 -14 -11 -63 -11 -47 0 -67
4 -63 11 4 6 0 5 -8 -1 -10 -8 -43 -12 -82 -12 l-66 1 -79 137 c-255 438 -329
567 -333 576 -2 6 -30 55 -63 109 -48 81 -56 102 -48 120 5 11 83 147 172 301
89 154 171 296 182 315 11 19 50 87 86 150 36 63 69 121 75 128 7 9 128 12
542 12 l533 0 29 -52z"/>
<path d="M4255 7310 c-13 -19 -90 -152 -173 -295 -174 -302 -277 -481 -356
-617 -31 -54 -56 -103 -56 -109 0 -6 16 -38 36 -72 20 -34 45 -76 54 -93 10
-17 71 -123 135 -235 65 -112 126 -217 135 -234 10 -16 67 -115 128 -220 l110
-190 323 -5 c178 -3 453 -4 611 -2 l286 3 48 82 c26 45 67 115 91 154 24 40
43 74 43 77 0 11 78 135 82 131 3 -3 5 1 5 7 0 7 75 143 166 301 92 159 167
292 167 297 0 4 -54 101 -120 215 -66 114 -117 212 -113 218 3 5 2 8 -3 4 -5
-3 -46 58 -91 136 -204 357 -266 463 -273 470 -4 4 -278 9 -610 10 l-603 2
-22 -35z m1284 -315 c70 -121 189 -326 264 -457 75 -130 137 -242 137 -248 0
-9 -409 -726 -512 -897 -22 -37 -22 -37 -50 -22 -11 6 -18 7 -15 2 7 -11 -454
-10 -472 1 -8 5 -12 5 -8 0 3 -5 -107 -9 -265 -9 l-271 0 -165 285 c-90 157
-211 365 -267 463 l-102 179 93 160 c52 88 107 183 123 212 38 67 290 505 306
531 12 20 23 20 545 20 l532 -1 127 -219z"/>
<path d="M3825 4424 c-5 -1 -39 -5 -75 -7 -394 -27 -765 -304 -892 -667 -47
-134 -65 -305 -47 -453 42 -346 251 -642 565 -800 55 -28 180 -70 259 -87 80
-18 270 -21 365 -5 124 20 138 24 210 52 233 92 417 243 530 435 19 31 38 54
44 51 5 -3 6 -1 3 4 -4 6 4 35 17 64 49 111 70 223 70 374 1 215 -19 306 -110
489 -154 307 -505 533 -849 545 -38 1 -72 4 -75 5 -3 2 -9 2 -15 0z m89 -295
c-5 -8 -3 -9 7 -3 28 17 151 -12 259 -62 148 -69 274 -191 352 -339 92 -176
93 -431 2 -620 -37 -78 -110 -181 -126 -177 -5 1 -7 -2 -3 -7 10 -17 -126
-120 -220 -167 -219 -108 -477 -106 -700 6 -92 46 -209 136 -199 152 4 6 3 8
-4 4 -12 -7 -93 97 -127 164 -35 70 -68 177 -63 204 3 15 1 23 -4 20 -14 -9
-7 189 9 261 42 190 150 345 313 450 130 83 250 118 428 124 64 1 82 -1 76
-10z"/>
<path d="M10169 4378 c5 -13 29 -67 53 -121 l44 -97 -68 -138 c-83 -168 -297
-610 -363 -749 -27 -57 -52 -100 -58 -96 -6 3 -7 1 -3 -5 3 -6 -37 -100 -90
-209 -53 -109 -131 -270 -174 -358 -42 -88 -75 -162 -73 -165 2 -2 70 -5 150
-5 l145 0 29 50 c16 27 34 58 41 68 20 28 97 74 173 103 137 51 190 56 603 60
230 3 381 0 378 -5 -4 -5 -2 -11 2 -13 5 -1 33 -57 62 -123 30 -66 57 -125 61
-130 8 -11 315 -15 313 -5 -3 11 -48 108 -289 615 -31 66 -68 145 -82 175 -14
30 -61 129 -104 219 -44 90 -79 165 -79 167 0 2 -28 61 -61 131 -34 71 -81
170 -105 221 -24 50 -64 134 -88 185 -24 50 -57 121 -75 156 -17 35 -28 67
-26 71 10 16 -30 20 -176 20 l-149 0 9 -22z m272 -624 c17 -37 49 -98 70 -136
21 -39 36 -74 33 -79 -3 -5 -1 -9 4 -9 4 0 32 -46 61 -102 30 -57 91 -176 137
-265 l84 -161 -282 -5 c-156 -2 -301 -8 -323 -11 -72 -13 -149 -37 -194 -62
-24 -13 -45 -23 -46 -22 -2 2 14 37 34 78 20 41 49 104 65 140 16 36 55 121
87 189 33 67 59 125 59 126 0 2 28 64 63 137 35 73 74 159 88 190 13 32 25 58
26 58 1 0 16 -30 34 -66z"/>
<path d="M410 4364 c0 -2 6 -9 13 -16 6 -7 32 -38 57 -68 25 -30 52 -64 62
-75 75 -91 88 -108 89 -113 0 -4 1 -378 2 -832 l2 -825 137 0 138 -1 2 663 3
663 50 -63 c27 -34 54 -67 60 -73 5 -6 39 -46 75 -89 36 -43 92 -110 125 -149
33 -39 92 -109 130 -156 38 -47 72 -87 75 -90 3 -3 24 -27 45 -55 22 -27 47
-56 55 -65 8 -9 121 -144 251 -301 l237 -284 138 0 139 0 0 965 0 965 -140 0
-140 0 0 -733 c0 -402 -2 -732 -5 -732 -3 0 -32 32 -65 71 -33 39 -65 76 -70
83 -6 6 -42 49 -80 96 -38 47 -74 90 -80 96 -15 17 -172 203 -480 569 -152
182 -319 380 -370 441 l-93 111 -181 -1 c-100 0 -181 -1 -181 -2z"/>
<path d="M5390 4346 c-1 -27 -1 -1259 0 -1632 l0 -280 138 1 137 0 3 363 2
363 55 24 c79 35 190 50 370 50 l160 0 55 -111 c30 -60 94 -191 142 -290 99
-205 156 -279 255 -331 93 -50 157 -62 338 -67 l50 -1 0 143 0 142 -70 0 c-38
0 -86 5 -105 10 -41 11 -110 73 -162 145 -33 47 -188 345 -188 363 0 5 25 16
57 26 82 26 188 93 247 157 189 204 181 571 -16 774 -35 36 -63 68 -61 70 2 3
0 3 -3 0 -4 -2 -36 11 -73 30 -62 31 -101 44 -176 61 -16 3 -283 7 -592 8
-562 2 -563 2 -563 -18z m1151 -279 c124 -37 189 -123 189 -252 0 -39 -7 -93
-16 -118 -22 -66 -87 -130 -155 -153 -76 -25 -55 -24 -389 -28 -272 -4 -313
-7 -378 -25 -40 -12 -84 -29 -98 -37 l-24 -16 0 324 0 323 408 -1 c346 -1 415
-3 463 -17z"/>
<path d="M7629 4351 c-1 -21 -1 -1882 0 -1901 1 -13 22 -15 139 -15 l137 0 2
285 c2 157 3 325 3 373 l0 88 43 18 c37 16 81 28 167 47 54 12 270 12 270 0 0
-7 3 -8 8 -1 10 16 54 17 45 2 -5 -9 -3 -9 8 -1 8 6 65 11 136 12 70 1 151 8
189 17 183 42 318 164 376 340 19 59 23 91 23 205 0 117 -3 143 -24 200 -62
169 -181 278 -356 326 -52 14 -133 17 -612 19 -498 1 -553 0 -554 -14z m1116
-284 c102 -35 153 -111 157 -233 2 -85 -7 -127 -38 -181 -57 -98 -108 -111
-450 -114 -145 -1 -288 -6 -316 -11 -58 -10 -156 -43 -175 -60 -10 -8 -13 52
-13 304 l0 314 393 -1 c339 -1 399 -4 442 -18z"/>
</g>
</svg>
