<?xml version="1.0" encoding="utf-8"?>
<!-- Generator: Adobe Illustrator 27.6.1, SVG Export Plug-In . SVG Version: 6.00 Build 0)  -->
<svg version="1.1" id="Layer_1" xmlns="http://www.w3.org/2000/svg" xmlns:xlink="http://www.w3.org/1999/xlink" x="0px" y="0px"
	 viewBox="0 0 280 74.2" style="enable-background:new 0 0 280 74.2;" xml:space="preserve">
<style type="text/css">
	.st0{display:none;fill:#FFFFFF;}
	.st1{fill:#01C2CB;}
	.st2{fill:#02C2CB;}
	.st3{fill:#04C2CB;}
	.st4{fill:#03C2CB;}
	.st5{fill:#FDFEFF;}
	.st6{fill:#FEFFFF;}
	.st7{fill:#FDFEFE;}
	.st8{display:none;fill:#FEFFFF;}
</style>
<path class="st0" d="M67.3,107.9c-35.8,0-71.6,0-107.3,0c0-34.1,0-68.3,0-102.4c50,0,100,0,150,0c0,34.1,0,68.3,0,102.4
	C95.8,107.9,81.6,107.9,67.3,107.9 M-31.7,102.2c1.1,0,2.2,0,3.3,0c0-0.7,0-1.3,0-1.9c0-0.6,0-1.2,0-1.9c0-0.6,0-1.2,0-1.9
	c0-0.6,0-1.2,0-1.9c0-0.6,0-1.2,0-1.9c0-0.6,0-1.2,0-1.9c0-0.6,0-1.2,0-1.9c0-0.6,0-1.2,0-1.9c0-0.6,0-1.2,0-1.9
	c0.2,0.3,0.4,0.4,0.5,0.6c2.2,2.6,4.3,5.2,6.5,7.8c2.3,2.7,4.6,5.5,6.8,8.2c0.2,0.2,0.3,0.3,0.5,0.3c1,0,1.9,0,2.9,0
	c0.1,0,0.2,0,0.3,0c0.1-0.8,0.1-24.2,0-24.5c-1.2,0-2.3,0-3.6,0c0,6.2,0,12.4,0,18.6c-0.1-0.1-0.1-0.1-0.2-0.1
	c-1.6-1.9-3.2-3.8-4.7-5.6c-2.6-3.1-5.2-6.2-7.8-9.3c-0.9-1.1-1.9-2.2-2.8-3.3c-0.2-0.2-0.3-0.3-0.5-0.3c-1.3,0-2.7,0-4,0
	c-0.1,0-0.2,0-0.3,0c1,1.2,1.9,2.3,2.8,3.5c0,0.2,0,0.4,0,0.6c0,6.6,0,13.3,0,19.9c0,0.2,0,0.3,0,0.5
	C-31.9,102.1-31.9,102.1-31.7,102.2 M45.8,96.5c-0.2-0.2-0.3-0.4-0.5-0.7c-0.5-1-1-2.1-1.5-3.1c-0.1-0.2-0.2-0.5-0.3-0.7
	c0.7-0.3,1.4-0.6,2.1-0.9c1.6-0.9,2.7-2.2,3.2-3.9c0.4-1.3,0.4-2.5,0.1-3.8c-0.4-2-1.4-3.6-3.2-4.6c-1.4-0.8-2.9-1.1-4.4-1.1
	c-4.2,0-8.3,0-12.5,0c-0.1,0-0.2,0-0.4,0c0,8.2,0,16.4,0,24.5c1.2,0,2.3,0,3.5,0c0-3.1,0-6.1,0-9.2c0.3-0.1,0.5-0.2,0.7-0.3
	c0.9-0.4,1.7-0.5,2.7-0.6c1.4,0,2.7-0.1,4.1-0.1c0.1,0.1,0.1,0.2,0.2,0.2c0.6,1.2,1.2,2.5,1.8,3.7c0.5,1.1,1,2.2,1.6,3.2
	c0.8,1.4,2,2.4,3.6,2.8c0.9,0.2,1.8,0.3,2.7,0.3c0.3,0,0.6,0,0.9,0c0.1-0.8,0.1-3.3,0-3.6c-0.4,0-0.8,0-1.3,0
	c-0.8,0-1.5-0.3-2.1-0.9C46.5,97.3,46.2,96.9,45.8,96.5 M10.4,102.6c1.2-0.1,2.3-0.4,3.5-0.9c3-1.2,5.3-3.2,6.8-6.1
	c1.3-2.4,1.6-4.9,1.3-7.6c-0.3-2-1-3.9-2.2-5.6c-1.5-2.1-3.5-3.7-5.9-4.7c-2.7-1.1-5.4-1.3-8.2-0.6c-3.8,0.9-6.7,3.1-8.6,6.5
	c-1.4,2.4-1.7,5-1.4,7.8c0.2,1.6,0.7,3,1.5,4.4c0.7,1.3,1.6,2.5,2.7,3.5c2.3,2,5,3.1,8,3.3C8.7,102.7,9.5,102.7,10.4,102.6
	 M97.3,86.2c-1.4-3-2.8-6-4.2-9c-1.3,0-2.6,0-4,0c0,0.1,0.1,0.2,0.1,0.3c0.4,0.8,0.7,1.6,1.1,2.5c0.1,0.2,0.1,0.4,0,0.6
	c-0.7,1.5-1.4,3-2.1,4.4c-0.9,1.9-1.9,3.8-2.8,5.8c-1,2-1.9,4-2.9,6c-0.8,1.7-1.7,3.4-2.5,5.1c0,0.1-0.1,0.2-0.1,0.3
	c1.3,0,2.6,0,3.9,0c0.1-0.1,0.2-0.3,0.3-0.4c0.2-0.3,0.3-0.6,0.5-0.9c0.4-0.6,1-0.9,1.7-1.2c1.6-0.7,3.2-1,5-1c2.6,0,5.1,0,7.7,0
	c0.1,0,0.3,0,0.4,0c0.5,1.2,1.1,2.4,1.6,3.5c1.3,0,2.7,0,4,0c-0.1-0.1-0.1-0.3-0.1-0.4c-0.3-0.6-0.6-1.3-0.9-1.9
	c-0.8-1.6-1.5-3.2-2.3-4.7c-0.9-1.9-1.8-3.8-2.6-5.6C98.3,88.4,97.8,87.3,97.3,86.2 M76.3,82c-0.6-1.6-1.6-2.8-3.1-3.6
	c-1.1-0.6-2.3-0.8-3.6-0.8c-4.1,0-8.2,0-12.4,0c-0.1,0-0.2,0-0.3,0c0,8.2,0,16.4,0,24.5c1.2,0,2.4,0,3.6,0c0-3.1,0-6.3,0-9.4
	c0.4-0.2,0.7-0.3,1-0.4c1.1-0.4,2.2-0.5,3.4-0.5c1.5,0,3,0,4.6,0c1,0,2-0.1,2.9-0.5c2-0.7,3.3-2.1,3.9-4
	C76.9,85.5,76.8,83.8,76.3,82 M35.7,50.1c0-0.1-0.1-0.2-0.1-0.2c-1.4-2.4-2.8-4.8-4.2-7.2c-0.5-1-1.1-1.9-1.6-2.9
	c-5.2,0-10.3,0-15.5,0c-0.1,0.1-0.1,0.1-0.1,0.2c-2.5,4.3-5,8.6-7.5,12.9c-0.1,0.2-0.1,0.3,0,0.5c0.1,0.1,0.1,0.2,0.2,0.3
	c2.1,3.6,4.2,7.2,6.2,10.8c0.4,0.7,0.8,1.4,1.2,2c5.2,0,10.3,0,15.5,0c2.6-4.5,5.2-8.9,7.7-13.4C36.9,52.2,36.3,51.2,35.7,50.1
	 M34.3,35.6c-0.6,1.1-1.3,2.2-1.9,3.4c0.1,0.1,0.1,0.3,0.2,0.4c2.4,4.2,4.8,8.4,7.2,12.6c0.2,0.4,0.4,0.5,0.8,0.5
	c4.8,0,9.6,0,14.4,0c0.2,0,0.4,0,0.5,0c2.6-4.5,5.1-8.9,7.7-13.3c0-0.1-0.1-0.1-0.1-0.2c-0.9-1.6-1.8-3.1-2.7-4.7
	c-1.6-2.7-3.2-5.5-4.7-8.2c-0.1-0.2-0.3-0.3-0.6-0.3c-4.9,0-9.8,0-14.7,0c-0.3,0-0.4,0.1-0.6,0.3c-0.5,0.9-1.1,1.9-1.6,2.8
	C37,31,35.7,33.3,34.3,35.6 M15.2,37.5c4.8,0,9.7,0,14.5,0c2.6-4.5,5.1-8.9,7.7-13.4c-2.6-4.5-5.1-8.9-7.7-13.4
	c-5.2,0-10.3,0-15.5,0c-2.6,4.4-5.1,8.9-7.7,13.4c2.6,4.5,5.1,8.9,7.7,13.4C14.6,37.5,14.9,37.5,15.2,37.5z"/>
<path class="st1" d="M185.7,48.3c0.5,0.6,0.9,1.2,1.4,1.7c0.8,0.9,1.9,1.3,3.1,1.3c0.6,0,1.2,0,1.9,0c0.2,0.4,0.2,4.3,0.1,5.4
	c-0.4,0-0.8,0-1.3,0c-1.3,0-2.7-0.1-4-0.4c-2.4-0.6-4.2-2-5.4-4.1c-0.9-1.5-1.6-3.2-2.4-4.7c-0.9-1.8-1.7-3.6-2.6-5.5
	c0-0.1-0.1-0.2-0.2-0.4c-2,0-4,0.1-6,0.1c-1.4,0-2.7,0.3-3.9,0.8c-0.3,0.1-0.7,0.3-1.1,0.5c0,4.5,0,9,0,13.6c-1.8,0-3.5,0-5.3,0
	c0-12.1,0-24.2,0-36.4c0.2,0,0.4,0,0.5,0c6.2,0,12.3,0,18.5,0c2.3,0,4.5,0.4,6.5,1.6c2.7,1.5,4.2,3.8,4.8,6.8
	c0.3,1.9,0.3,3.8-0.2,5.7c-0.7,2.6-2.4,4.6-4.8,5.9c-1,0.5-2,0.9-3.1,1.3c0.2,0.3,0.3,0.7,0.5,1.1c0.8,1.5,1.5,3.1,2.3,4.6
	C185.2,47.6,185.5,47.9,185.7,48.3 M184.1,34.4c0.1-0.1,0.2-0.2,0.3-0.4c0.8-1.4,1-2.8,0.7-4.4c-0.3-1.8-1.3-3-3-3.5
	c-0.9-0.3-1.8-0.4-2.7-0.4c-4.5,0-9,0-13.5,0c-0.2,0-0.4,0-0.6,0c-0.1,0.9-0.1,11.4,0,11.9c0.9-0.3,1.8-0.6,2.7-0.9
	c1.4-0.3,2.8-0.4,4.2-0.4c2.4,0,4.9,0,7.3,0C181.3,36.2,182.8,35.8,184.1,34.4z"/>
<path class="st2" d="M70.2,25.3c-1.4-1.7-2.8-3.3-4.2-5c0.2,0,0.3-0.1,0.4-0.1c2,0,4,0,5.9,0c0.4,0,0.6,0.1,0.8,0.4
	c1.4,1.7,2.8,3.3,4.2,5c3.9,4.6,7.7,9.2,11.6,13.8c2.3,2.8,4.7,5.6,7,8.4c0,0,0.1,0.1,0.2,0.2c0-9.3,0-18.5,0-27.7
	c1.8,0,3.6,0,5.3,0c0.1,0.5,0.2,35.3,0,36.4c-0.1,0-0.3,0-0.4,0c-1.4,0-2.9,0-4.3,0c-0.4,0-0.6-0.1-0.8-0.4
	c-3.4-4.1-6.8-8.1-10.1-12.2c-3.2-3.8-6.4-7.7-9.6-11.5c-0.2-0.3-0.4-0.5-0.8-0.9c-0.1,1,0,1.9,0,2.8c0,0.9,0,1.8,0,2.8s0,1.8,0,2.8
	s0,1.8,0,2.8s0,1.8,0,2.8c0,0.9,0,1.8,0,2.8s0,1.8,0,2.8s0,1.8,0,2.8c0,0.9,0,1.8,0,2.8c-1.7,0-3.3,0-5-0.1
	c-0.1-10.2-0.1-20.3-0.1-30.4c0-0.2,0-0.4,0-0.6C70.4,25.5,70.3,25.4,70.2,25.3z"/>
<path class="st2" d="M133,57.4c-1.2,0-2.4,0.2-3.6,0.1c-4.5-0.2-8.5-1.9-11.9-4.9c-1.7-1.5-3-3.2-4.1-5.2c-1.1-2.1-1.9-4.3-2.2-6.6
	c-0.5-4,0-7.9,2-11.5c2.8-5,7.1-8.2,12.7-9.6c4.1-1,8.2-0.7,12.2,0.9c3.6,1.4,6.5,3.7,8.7,6.9c1.7,2.5,2.8,5.3,3.2,8.3
	c0.5,3.9,0,7.7-1.9,11.2c-2.3,4.3-5.7,7.3-10.2,9.1C136.6,56.8,134.9,57.3,133,57.4 M119.2,30c-2.4,3.2-3.2,6.8-2.6,10.7
	c0.5,3.2,2,5.9,4.5,8c3.3,2.8,7.2,3.9,11.5,3.4c2.5-0.3,4.7-1.2,6.7-2.7c3.8-2.7,5.6-6.5,5.7-11.1c0-0.9-0.1-1.7-0.2-2.6
	c-0.7-3.7-2.7-6.6-5.8-8.7c-2.2-1.5-4.7-2.3-7.4-2.4c-2.1-0.1-4.2,0.1-6.2,0.9C123.1,26.4,121,27.8,119.2,30z"/>
<path class="st2" d="M262.1,33c0.8,1.6,1.5,3.2,2.3,4.8c1.3,2.8,2.6,5.6,3.9,8.4c1.1,2.3,2.2,4.7,3.3,7c0.5,1,0.9,1.9,1.4,2.9
	c0.1,0.2,0.1,0.3,0.2,0.6c-2,0-3.9,0-5.9,0c-0.8-1.7-1.6-3.5-2.4-5.2c-0.2,0-0.4,0-0.6,0c-3.8,0-7.6,0-11.5,0c-2.5,0-5,0.4-7.4,1.5
	c-0.9,0.4-1.8,0.9-2.5,1.8c-0.3,0.4-0.5,0.9-0.7,1.3c-0.1,0.2-0.3,0.4-0.4,0.6c-1.9,0-3.8,0-5.7,0c0.1-0.2,0.1-0.3,0.2-0.5
	c1.2-2.5,2.5-5,3.7-7.6c1.4-3,2.9-6,4.3-8.9c1.4-2.9,2.8-5.7,4.1-8.6c1.1-2.2,2.1-4.4,3.2-6.6c0.1-0.3,0.2-0.5,0-0.8
	c-0.6-1.2-1.1-2.4-1.6-3.6c-0.1-0.1-0.1-0.2-0.2-0.4c2,0,3.9,0,5.9,0C257.9,24.1,260,28.5,262.1,33 M247,47.7
	c0.6-0.3,1.2-0.6,1.8-0.8c1.9-0.6,3.8-0.8,5.8-0.9c2.4,0,4.9,0,7.3,0c0.2,0,0.4,0,0.6,0c-2.7-5.1-5.3-10.2-7.9-15.3
	c-0.3,0.7-0.6,1.3-0.9,1.9c-2,4.2-3.9,8.5-5.9,12.7c-0.4,0.8-0.7,1.6-1.1,2.4c0,0,0,0.1,0,0.1C246.8,47.8,246.8,47.8,247,47.7z"/>
<path class="st2" d="M230.9,26.8c0.8,2.6,0.8,5.2,0,7.8c-0.9,2.9-2.9,4.9-5.8,6c-1.4,0.5-2.8,0.7-4.3,0.7c-2.3,0-4.5,0-6.8,0
	c-1.7,0-3.4,0.2-5,0.8c-0.5,0.2-1,0.4-1.5,0.7c0,4.7,0,9.3,0,14c-1.8,0-3.5,0-5.3,0c0-12.1,0-24.2,0-36.4c0.2,0,0.3,0,0.5,0
	c6.1,0,12.2,0,18.4,0c1.8,0,3.6,0.3,5.3,1.2C228.5,22.6,230.1,24.4,230.9,26.8 M224.6,34.8c0.6-0.5,1-1.1,1.2-1.8
	c0.5-1.3,0.4-2.7,0.2-4.1c-0.3-1.5-1.2-2.5-2.7-2.9c-0.7-0.2-1.4-0.3-2.1-0.3c-4.4,0-8.8,0-13.3,0c-0.2,0-0.3,0-0.5,0.1
	c-0.1,1.3-0.1,11,0.1,11.5c0.1,0,0.2-0.1,0.3-0.1c1-0.5,2.1-0.9,3.3-1c0.8-0.1,1.6-0.2,2.4-0.2c2.5,0,5.1,0,7.6,0
	C222.4,35.8,223.5,35.6,224.6,34.8z"/>
<path class="st3" d="M35.7,50.1c0.6,1,1.2,2,1.8,3c-2.6,4.4-5.1,8.9-7.7,13.4c-5.2,0-10.3,0-15.5,0c-0.4-0.7-0.8-1.3-1.2-2
	C11,60.9,9,57.3,6.9,53.7c-0.1-0.1-0.1-0.2-0.2-0.3c-0.1-0.2-0.1-0.3,0-0.5c2.5-4.3,5-8.6,7.5-12.9c0-0.1,0.1-0.1,0.1-0.2
	c5.1,0,10.3,0,15.5,0c0.5,1,1.1,1.9,1.6,2.9c1.4,2.4,2.8,4.8,4.2,7.2C35.6,50,35.7,50,35.7,50.1 M30.7,61.6c1.5-2.7,3.1-5.3,4.6-8
	c0.2-0.3,0.2-0.5,0-0.8c-1.6-2.7-3.1-5.4-4.6-8c-0.6-1.1-1.3-2.2-1.9-3.3c-0.1,0-0.2,0-0.2,0c-4.3,0-8.7,0-13,0
	c-0.3,0-0.4,0.1-0.5,0.3c-1.8,3.1-3.5,6.1-5.3,9.2c-0.4,0.7-0.8,1.4-1.2,2.2c2.3,3.9,4.5,7.8,6.8,11.7c4.6,0,9,0,13.5,0
	C29.4,63.8,30.1,62.7,30.7,61.6z"/>
<path class="st4" d="M34.4,35.6c1.3-2.3,2.7-4.6,4-6.9c0.5-0.9,1.1-1.8,1.6-2.8c0.1-0.2,0.3-0.3,0.6-0.3c4.9,0,9.8,0,14.7,0
	c0.3,0,0.4,0.1,0.6,0.3c1.6,2.7,3.2,5.5,4.7,8.2c0.9,1.6,1.8,3.1,2.7,4.7c0,0.1,0.1,0.1,0.1,0.2c-2.6,4.4-5.1,8.9-7.7,13.3
	c-0.2,0-0.4,0-0.5,0c-4.8,0-9.6,0-14.4,0c-0.4,0-0.6-0.1-0.8-0.5c-2.4-4.2-4.8-8.4-7.2-12.6c-0.1-0.1-0.1-0.2-0.2-0.4
	C33.1,37.9,33.7,36.8,34.4,35.6 M54.7,27.4c-0.1-0.2-0.4-0.1-0.5-0.1c-4.2,0-8.4,0-12.6,0c-0.2,0-0.3,0-0.5,0
	c-2.3,3.9-4.5,7.8-6.8,11.7c2.3,3.9,4.5,7.8,6.8,11.7c4.5,0,9,0,13.5,0c0.2-0.4,0.5-0.8,0.7-1.3c2-3.4,3.9-6.8,5.9-10.1
	c0.1-0.2,0.2-0.4,0-0.7c-0.9-1.6-1.8-3.2-2.8-4.8C57.2,31.8,56,29.6,54.7,27.4z"/>
<path class="st4" d="M15.2,37.5c-0.3,0-0.6,0-0.9,0c-2.6-4.5-5.1-8.9-7.7-13.4c2.6-4.5,5.1-8.9,7.7-13.4c5.2,0,10.3,0,15.5,0
	c2.6,4.5,5.1,8.9,7.7,13.4c-2.6,4.5-5.1,8.9-7.7,13.4C24.9,37.5,20.1,37.5,15.2,37.5 M9.2,25.3c1.9,3.4,3.9,6.7,5.8,10.1
	c0.2,0.3,0.4,0.4,0.7,0.4c4.2,0,8.4,0,12.6,0c0.2,0,0.3,0,0.5,0c2.3-3.9,4.5-7.8,6.8-11.7c-0.9-1.6-1.8-3.1-2.7-4.7
	c-1.3-2.2-2.5-4.4-3.8-6.6c-0.2-0.4-0.4-0.5-0.9-0.5c-4.1,0-8.3,0-12.4,0c-0.2,0-0.3,0-0.5,0c-0.1,0.1-0.1,0.2-0.2,0.3
	c-1,1.7-1.9,3.3-2.9,5c-1.2,2-2.3,4-3.5,6.1c-0.2,0.3-0.2,0.5,0,0.8C8.9,24.7,9,25,9.2,25.3z"/>
<path class="st5" d="M184.1,34.4c-1.2,1.4-2.8,1.8-4.6,1.8c-2.4,0-4.9,0-7.3,0c-1.4,0-2.8,0.1-4.2,0.4c-0.9,0.2-1.8,0.6-2.7,0.9
	c-0.1-0.4-0.2-10.9,0-11.9c0.2,0,0.4,0,0.6,0c4.5,0,9,0,13.5,0c0.9,0,1.8,0.2,2.7,0.4c1.7,0.5,2.7,1.7,3,3.5c0.2,1.5,0.1,3-0.7,4.4
	C184.3,34.1,184.2,34.2,184.1,34.4z"/>
<path class="st6" d="M119.3,30c1.7-2.1,3.8-3.6,6.3-4.5c2-0.7,4.1-1,6.2-0.9c2.7,0.1,5.1,0.9,7.4,2.4c3.1,2.1,5.1,5,5.8,8.7
	c0.2,0.9,0.3,1.7,0.2,2.6c-0.2,4.6-2,8.3-5.7,11.1c-2,1.5-4.2,2.4-6.7,2.7c-4.3,0.4-8.2-0.6-11.5-3.4c-2.5-2.1-4.1-4.8-4.5-8
	C116,36.8,116.8,33.2,119.3,30z"/>
<path class="st7" d="M246.8,47.6c0.3-0.8,0.7-1.6,1-2.3c2-4.3,3.9-8.5,5.9-12.7c0.3-0.6,0.6-1.2,0.9-1.9c2.7,5.1,5.3,10.2,7.9,15.3
	c-0.3,0-0.5,0-0.6,0c-2.4,0-4.9,0-7.3,0c-2,0-3.9,0.2-5.8,0.9c-0.6,0.2-1.2,0.5-1.9,0.8C246.8,47.7,246.8,47.6,246.8,47.6z"/>
<path class="st7" d="M87,96.1C87,96.1,87,96.1,87,96.1C87,96.1,87,96.1,87,96.1C87,96.1,87,96.1,87,96.1z"/>
<path class="st6" d="M224.6,34.8c-1,0.8-2.2,1-3.4,1c-2.5,0-5.1,0-7.6,0c-0.8,0-1.6,0.1-2.4,0.2c-1.2,0.1-2.2,0.5-3.3,1
	c-0.1,0-0.2,0.1-0.3,0.1c-0.2-0.5-0.2-10.2-0.1-11.5c0.1,0,0.3-0.1,0.5-0.1c4.4,0,8.8,0,13.3,0c0.7,0,1.4,0.2,2.1,0.3
	c1.5,0.4,2.4,1.4,2.7,2.9c0.3,1.4,0.3,2.7-0.2,4.1C225.6,33.7,225.2,34.3,224.6,34.8z"/>
<path class="st6" d="M30.7,61.6c-0.6,1.1-1.3,2.2-1.9,3.3c-4.5,0-9,0-13.5,0C13,61,10.8,57.1,8.5,53.2c0.4-0.7,0.8-1.4,1.2-2.2
	c1.8-3.1,3.5-6.1,5.3-9.2c0.1-0.2,0.2-0.4,0.5-0.3c4.3,0,8.7,0,13,0c0.1,0,0.2,0,0.2,0c0.6,1.1,1.3,2.2,1.9,3.3
	c1.5,2.7,3.1,5.4,4.6,8c0.2,0.3,0.2,0.5,0,0.8C33.8,56.3,32.3,58.9,30.7,61.6z"/>
<path class="st6" d="M54.7,27.5c1.2,2.2,2.5,4.3,3.7,6.4c0.9,1.6,1.8,3.2,2.8,4.8c0.2,0.3,0.1,0.4,0,0.7c-2,3.4-3.9,6.8-5.9,10.1
	c-0.2,0.4-0.5,0.8-0.7,1.3c-4.5,0-9,0-13.5,0c-2.3-3.9-4.5-7.8-6.8-11.7c2.2-3.9,4.5-7.8,6.8-11.7c0.2,0,0.3,0,0.5,0
	c4.2,0,8.4,0,12.6,0C54.3,27.3,54.6,27.2,54.7,27.5z"/>
<path class="st8" d="M9.2,25.3C9,25,8.9,24.7,8.7,24.5c-0.2-0.3-0.2-0.5,0-0.8c1.2-2,2.3-4,3.5-6.1c1-1.7,1.9-3.3,2.9-5
	c0.1-0.1,0.1-0.2,0.2-0.3c0.2,0,0.3,0,0.5,0c4.1,0,8.3,0,12.4,0c0.4,0,0.7,0.1,0.9,0.5c1.2,2.2,2.5,4.4,3.8,6.6
	c0.9,1.6,1.8,3.1,2.7,4.7c-2.2,3.9-4.5,7.8-6.8,11.7c-0.2,0-0.3,0-0.5,0c-4.2,0-8.4,0-12.6,0c-0.4,0-0.5-0.1-0.7-0.4
	C13.1,32,11.1,28.7,9.2,25.3z"/>
</svg>
